<svg id="Capa_1" enable-background="new 0 0 512 512" height="512" viewBox="0 0 512 512" width="512" xmlns="http://www.w3.org/2000/svg"><path d="m42.03 0v512h427.939v-512zm198.97 105c0-8.271 6.729-15 15-15s15 6.729 15 15-6.729 15-15 15-15-6.729-15-15zm30 42.419c17.459-6.192 30-22.865 30-42.42 0-24.813-20.187-45-45-45s-45 20.187-45 45c0 19.555 12.541 36.228 30 42.42v32.581h-97.639l-63.054-150h351.385l-63.054 150h-97.638zm-198.97-59.693 51.399 122.274h117.571v32.58c-17.459 6.192-30 22.865-30 42.42 0 24.813 20.187 45 45 45s45-20.187 45-45c0-19.555-12.541-36.228-30-42.42v-32.58h117.57l51.399-122.274v251.293c-.467-.004-.933-.019-1.399-.019-79.192 0-143.704 64.005-144.55 143h-221.99zm198.97 197.274c0 8.271-6.729 15-15 15s-15-6.729-15-15 6.729-15 15-15 15 6.729 15 15zm53.02 197c.844-62.453 51.901-113 114.55-113 .467 0 .933.013 1.399.019v112.981z"/></svg>